<svg id="Layer_5" enable-background="new 0 0 64 64" height="512" viewBox="0 0 64 64" width="512" xmlns="http://www.w3.org/2000/svg"><g><path d="m56.09 37.783c1.088-2.222 1.385-4.735.883-7.123l4.597-2.776c.177-.107.341-.232.485-.371.542-.517.85-1.213.867-1.961.018-.749-.258-1.459-.775-2.001l-.272-.285c-.191-.201-.414-.358-.648-.491l.093-.089c.581-.553.911-1.299.93-2.101s-.276-1.562-.829-2.142c-1.143-1.196-3.046-1.24-4.242-.099l-.095.09c-.121-.238-.265-.468-.459-.671l-.272-.286c-.518-.542-1.214-.85-1.962-.867-.749-.012-1.459.258-1.996.771-.151.143-.286.303-.397.471l-2.989 4.462c-.425-.11-.853-.2-1.287-.259-.562-3.938-1.771-6.393-1.826-6.503l-.447-.895-1.382.691-1.469-9.547c-.429-2.781-2.783-4.801-5.598-4.801s-5.169 2.02-5.597 4.802l-1.484 9.646-1.268-.986-.546 1.091c-.081.162-1.876 3.819-2.084 9.394-1.276-.493-2.639-.801-4.062-.898-.159-5.273-.953-10.049-4.959-10.049v2c1.437 0 2.181 1.533 2.571 3.711-1.228-1.063-2.824-1.711-4.571-1.711h-7v1c0 3.508 2.596 6.412 5.966 6.915-4.159 2.43-6.966 6.931-6.966 12.085 0 .028.005.055.005.083-3.969 1.342-6.005 2.992-6.005 4.917 0 11.028 8.972 20 20 20h22c11.028 0 20-8.972 20-20 0-2.073-2.327-3.825-6.91-5.217zm4.91 5.217c0 1.931-6.556 4.447-17.784 5.501l9.137-6.377c.458-.32.896-.677 1.299-1.062l.17-.162c.442-.422.829-.878 1.185-1.351 4.402 1.263 5.993 2.634 5.993 3.451zm-26.031-5.617 7.324 7.324 1.414-1.414-8-8-.846.846c-.115-.863-.303-1.701-.569-2.507l4.633-6.018c.278-.361.588-.705.919-1.021l.169-.162c3.589-3.426 9.298-3.294 12.725.297 3.426 3.59 3.293 9.299-.298 12.725l-.17.163c-.33.315-.688.607-1.062.869l-11.907 8.311c-2.284.13-4.718.204-7.301.204-.79 0-1.562-.009-2.324-.022 3.307-2.619 5.324-6.642 5.324-10.978 0-.208-.022-.411-.031-.617zm24.897-12.986c.214.005.413.093.562.249l.273.286c.147.155.227.358.222.572-.006.214-.094.413-.251.563-.04.039-.086.074-.137.104l-4.174 2.521c-.125-.298-.261-.592-.413-.881l3.345-3.193c.155-.146.333-.212.573-.221zm.107-4.573c.185.193.283.447.276.714-.006.267-.116.515-.31.7l-5.1 4.868c-.206-.259-.421-.514-.654-.758s-.478-.47-.727-.688l3.074-2.933s.001-.001.001-.002l2.025-1.933c.4-.383 1.035-.366 1.415.032zm-6.312-.864c.03-.045.065-.087.109-.129.155-.148.354-.219.572-.222.214.005.414.093.562.249l.272.286c.305.319.293.826-.025 1.131l-3.348 3.195c-.281-.166-.569-.316-.861-.454zm-7.979 3.009c-2.548.125-5.064 1.12-7.051 3.015l-.169.162c-.404.386-.781.805-1.121 1.247l-3.945 5.124c-1.232-2.345-3.109-4.294-5.394-5.621 0-.097.006-.187.008-.283l16.484-8.242c.351.928.861 2.522 1.188 4.598zm-12.302-15.864c.276-1.799 1.799-3.105 3.62-3.105s3.344 1.306 3.62 3.105l1.567 10.183-6.809 3.405-3.651-2.84zm-3.955 11.493 3.969 3.087-5.252 2.626c.268-2.554.861-4.548 1.283-5.713zm-19.324 2.402h4.899c2.415 0 4.435 1.721 4.899 4h-4.899c-2.415 0-4.435-1.721-4.899-4zm9.894 6.051c.005.659.005 1.314.005 1.949v1.846c-.626-.202-1-.565-1-.846h-2c0 1.682 1.757 3 4 3s4-1.318 4-3h-2c0 .28-.374.643-1 .846v-1.846c0-.644-.001-1.297-.006-1.95 6.153.508 11.006 5.669 11.006 11.95 0 4.656-2.709 8.894-6.916 10.866-4.775-.218-8.919-.689-12.323-1.305-2.98-2.262-4.761-5.819-4.761-9.561 0-6.277 4.847-11.436 10.995-11.949zm-12.81 14.076c.38 2.44 1.394 4.737 2.935 6.653-4.594-1.16-7.12-2.582-7.12-3.78 0-.663 1.126-1.774 4.185-2.873zm35.815 20.873h-22c-8.82 0-16.165-6.382-17.694-14.768 4.891 3.14 16.844 4.768 28.694 4.768s23.803-1.628 28.694-4.768c-1.529 8.386-8.874 14.768-17.694 14.768z"/><path d="m55.381 49.532c-2.442 4.606-7.186 7.468-12.381 7.468h-1v2h1c5.938 0 11.359-3.269 14.148-8.532z"/><path d="m34 6h2v2h-2z"/><path d="m38 6h2v2h-2z"/><path d="m34 10h2v2h-2z"/><path d="m38 10h2v2h-2z"/><path d="m34 14h2v2h-2z"/><path d="m38 14h2v2h-2z"/><path d="m13.831 34.445-1.791-.891c-.352.707-.618 1.455-.793 2.224l1.951.442c.139-.613.352-1.21.633-1.775z"/><path d="m16.555 46.96.891-1.791c-2.743-1.362-4.446-4.109-4.446-7.169h-2c0 3.824 2.129 7.257 5.555 8.96z"/><path d="m46 26.343h2v11.314h-2z" transform="matrix(.707 -.707 .707 .707 -8.861 42.607)"/><path d="m42 30.343h2v11.314h-2z" transform="matrix(.707 -.707 .707 .707 -12.861 40.95)"/><path d="m38 57h2v2h-2z"/></g></svg>